<?xml version="1.0" encoding="utf-8"?>
<!-- Generator: Adobe Illustrator 16.0.0, SVG Export Plug-In . SVG Version: 6.00 Build 0)  -->
<!DOCTYPE svg PUBLIC "-//W3C//DTD SVG 1.1//EN" "http://www.w3.org/Graphics/SVG/1.1/DTD/svg11.dtd">
<svg version="1.1" id="Layer_1" xmlns="http://www.w3.org/2000/svg" xmlns:xlink="http://www.w3.org/1999/xlink" x="0px" y="0px"
	 width="99.391px" height="100px" viewBox="0 0 99.391 100" enable-background="new 0 0 99.391 100" xml:space="preserve">
<g>
	<path fill="#010101" d="M85.124,50.07c-1.073-0.196-2.915-0.104-4.007-0.258c-1.142-0.285-3.757-1.994-4.657-3.144
		c-0.276-0.134-0.817-0.24-1.466-0.311c-0.021-0.872-0.115-1.797,0.988-2.065c-1.403-0.576-3.152,0.571-3.7,1.982
		c-0.497,0.021-0.951,0.07-1.304,0.142c-0.659,0.139-1.503,0.953-2.283,2.205c-0.546,0.881-16.67,1.072-26.162,1.279
		c-1.303,0.027-2.602,0.252-3.566,0.965c-2.026,1.089-2.776,3.766-3.558,6.581c-0.737,2.659-1.499,5.396-3.326,7.001
		c-0.831,0.03-1.654,0.339-2.314,0.949c-0.984,0.909-1.347,2.238-1.075,3.457c1.194,0.37,2.548,0.115,3.533-0.796
		c0.691-0.636,1.068-1.478,1.142-2.345c1.529-1.39,2.405-3.337,3.055-5.327c0.61,1.872,1.65,6.674,1.65,11.686v8.249l1.502-0.898
		l1.5,0.898v-7.547c0.274,0.387,0.609,0.72,0.989,1.001v1.941c0,0.331,0.268,0.602,0.601,0.602c0.331,0,0.602-0.27,0.602-0.602
		v-1.309c0.288,0.101,0.589,0.174,0.902,0.214v1.095c0,0.331,0.267,0.602,0.6,0.602c0.332,0,0.6-0.27,0.6-0.602v-1.095
		c0.312-0.041,0.613-0.114,0.901-0.214v1.309c0,0.331,0.27,0.602,0.602,0.602c0.333,0,0.6-0.27,0.6-0.602v-1.945
		c1.09-0.804,1.797-2.079,1.797-3.52c0-0.709,0.035-1.585-0.038-2.474c5.928-0.055,12.804-0.125,15.13-0.125
		c1.638,0,3.607,1.653,3.607,4.808v7.86l1.503-0.898l1.503,0.898V67.405c0-0.696,1.648-3.277,1.648-3.277
		c0-1.072,0.028-3.323,0.678-4.135c0.775-0.969,1.746-0.819,2.891-0.864c3.138-0.118,3.832-1.54,9.276-1.577
		C86.599,56.685,86.217,50.271,85.124,50.07z"/>
	<path fill="#010101" d="M89.623,12.641c-0.281-0.579-0.613-2.026-0.613-2.67V7.786C89.009,3.491,85.517,0,81.224,0H35.291
		c-4.294,0-7.787,3.493-7.787,7.786v3.633H6.483c-3.42,0-5.4,1.985-6.113,3.842c-0.713,1.857-0.567,4.657,1.977,6.943l14.492,13.026
		c0.107,0.151,0.243,0.456,0.284,0.638v56.347c0,4.292,3.493,7.785,7.786,7.785h66.694c4.295,0,7.788-3.493,7.788-7.785V36.598
		c0-2.193-0.694-5.219-1.648-7.193L89.623,12.641z M93.069,31.667c0.21,0.435,0.408,0.977,0.576,1.559H22.203l9.979-17.672
		c0.015-0.022,0.036-0.047,0.052-0.069h52.998L93.069,31.667z M32.695,7.786c0-1.427,1.168-2.594,2.595-2.594h45.934
		c1.427,0,2.596,1.167,2.596,2.594v2.185c0,0.822,0.167,1.903,0.43,2.918H32.695V7.786z M5.818,18.344
		c-1.061-0.952-0.761-1.735,0.665-1.735h22.122l-8.324,14.737L5.818,18.344z M94.203,92.215c0,1.427-1.17,2.596-2.598,2.596H24.91
		c-1.427,0-2.596-1.17-2.596-2.596V35.818h71.847c0.027,0.278,0.042,0.539,0.042,0.78V92.215L94.203,92.215z"/>
</g>
</svg>
