<svg xmlns="http://www.w3.org/2000/svg" xmlns:xlink="http://www.w3.org/1999/xlink" version="1.1" id="Layer_1" x="0px" y="0px" width="100px" height="100px" viewBox="0 0 100 100" enable-background="new 0 0 100 100" xml:space="preserve">
<path d="M78.087,21.223c0-0.07-0.013-0.139-0.022-0.208c-0.003-0.022-0.003-0.044-0.007-0.067c-0.024-0.128-0.066-0.25-0.121-0.367  c-0.012-0.025-0.026-0.048-0.04-0.072c-0.054-0.1-0.118-0.193-0.193-0.28c-0.011-0.012,0.018-0.028,0.006-0.04L68,9.725v-3.97  c0-1.655-1.217-4.116-3.439-4.435c-2.783-0.398-12.429-0.697-20.166-0.937c-4.338-0.134-8.091-0.25-9.08-0.34  C35.003,0.015,34.707,0,34.431,0c-3.426,0-4.648,2.12-4.648,4.104c0,1.274,0.208,3.824,0.321,5.098l-8.062,8.433  c-0.014,0.015-0.022,0.033-0.036,0.049c-0.001,0.002-0.004,0.004-0.006,0.006c-0.019,0.022-0.041,0.041-0.059,0.064  c-0.037,0.048-0.068,0.101-0.099,0.154c-0.016,0.026-0.033,0.05-0.048,0.077c-0.008,0.016-0.018,0.029-0.025,0.045  s-0.012,0.034-0.019,0.05c-0.034,0.077-0.064,0.154-0.085,0.236c-0.002,0.009-0.004,0.019-0.006,0.029  c-0.007,0.033-0.009,0.067-0.015,0.101C21.632,18.518,21.787,19,21.787,19l0.994,68.551c0.007,0.453,0.171,0.809,0.524,1.094  l13.628,11.047c0.003,0.002-0.002-0.014,0.001-0.01c0.008,0.006,0.008,0.005,0.016,0.011c0.095,0.072,0.202,0.112,0.309,0.161  c0.042,0.02,0.139,0.048,0.183,0.063C37.601,99.972,38,100,38,100v-0.002l0,0c0,0,0.178-0.014,0.296-0.043  c0.006-0.002-0.019,0-0.012-0.002l39.042-9.904c0.684-0.174,1.152-0.791,1.148-1.494L78.087,21.223z M31.017,19.15l2.682-0.372  l0.5,1.196l-1.291-0.334L31.017,19.15z M31.11,12.583l1.366,3.27l-5.178,0.719L31.11,12.583z M37.858,20.687l-3.297-7.86  l-0.609-1.453l31.655,0.346l7.508,8.066L37.858,20.687z M34.427,3.066c0.189,0,0.389,0.01,0.602,0.029  c1.08,0.098,4.687,0.21,9.254,0.352C51.54,3.672,61.545,3.98,64.158,4.354C64.471,4.399,65,5.237,65,5.755v2.89L33.167,8.299  c-0.11-1.309-0.288-3.221-0.288-4.193C32.879,3.643,32.846,3.066,34.427,3.066z M24.713,20.683l10.62,2.753l0.968,71.777  l-10.552-8.566L24.713,20.683z M39.384,96.504L38.55,34.662l-0.145-10.724l36.626-1.029l0.363,64.465L39.384,96.504z"/>
<g>
	<path d="M31.663,93.455c0.433-2.588-0.204-6.344,0.469-8.863c1.199-4.496,9.859-8.355,12.986-3.568   c1.107,1.695-0.808,3.545-0.183,5.232c0.923,2.488,2.272,1.971,4.65,3.32c4.28,2.436,5.705,4.338,1.489,6.643   c-2.664,1.455-9.29,2.57-12.236,2.137c-3.23-0.475-4.996-2.729-7.687-4.219"/>
</g>
<g>
	<path d="M60.952,51.566c-4.316,1.184-8.757,0.645-11.374,5.1c-2.5,4.256,0.206,8.617-0.538,13.127   c-0.682,4.127-2.944,4.262,1.688,6.469c3.615,1.721,10.505,1.215,12.752-2.516c1.947-3.23-0.46-6.818,1.683-10.09   c1.524-2.328,4.854-2.953,5.679-5.961c1.769-6.465-7.55-8.51-11.763-5.449"/>
</g>
<g>
	<path d="M76.448,68.934C66.192,67.32,60.36,83.25,70.534,81.881c5.842-0.787,5.688-8.1,5.062-12.266"/>
</g>
<g>
	<path d="M66.061,22.447c-2.452,0.356-2.033,2.291-2.767,3.444c-0.462,0.727-0.098,1.782-1.287,3.035   c-1.014,1.068-3.195,0.74-4.289,1.652c-2.642,2.202-2.252,3.809,1.396,6.01c4.554,2.748,12.057,3.323,15.461-1.2   c0,0,2.729-6.808,2.359-9.536c-0.369-2.727-3.562-4.541-3.562-4.541L66.061,22.447z"/>
</g>
<g>
	<path d="M28.556,40.387c1.655,4.088,5.171,12.4,9.881,10.881c1.735-0.56,2.533-5.628,4.635-6.172c3.18-0.823,6.4,3.312,8.858-0.681   c1.828-2.97,2.294-5.209-0.174-7.194c-1.175-0.945-2.931-1.349-3.924-2.554c-0.836-1.016-0.669-4.191-1.525-4.649   c-2.571-1.377-5.68,2.636-8.556,1.995c-4.144-0.924-8.607-4.503-8.983-0.709C28.769,31.302,27.427,37.6,28.556,40.387z"/>
</g>
<g>
	<path d="M22.986,65.611c5.243,8.789,14.614-0.582,7.837-9.213c-4.724-6.014-8.026-0.932-8.178,7.445"/>
</g>
</svg>