<svg xmlns="http://www.w3.org/2000/svg" xmlns:xlink="http://www.w3.org/1999/xlink" version="1.1" id="Layer_1" x="0px" y="0px" width="100px" height="100px" viewBox="0 0 100 100" enable-background="new 0 0 100 100" xml:space="preserve">
<path fill-rule="evenodd" clip-rule="evenodd" d="M68.317,33.755c0.738,0.104,1.09,0.116,1.831,0.223  c1.404,0.203,2.668,0.831,3.592,1.691c0.461,0.431,0.837,0.919,1.094,1.449c0.13,0.265,0.229,0.54,0.294,0.822  c0.017,0.069,0.031,0.141,0.043,0.212c0.013,0.071,0.023,0.144,0.031,0.215c0.016,0.146,0.021,0.291,0.019,0.438  c-0.117,5.978-0.296,12.872-0.37,19.642c-0.012,1.334-0.726,2.482-1.878,3.267c-0.576,0.394-1.262,0.695-2.014,0.881  c-0.378,0.093-0.772,0.158-1.178,0.19c-0.202,0.016-0.408,0.024-0.617,0.024s-0.42-0.009-0.632-0.026  c-0.689-0.056-0.631,0.062-0.631,0.062L66.234,81.47c0,0-1.405,12.878-16.872,13.394C36.557,95.194,33.53,83.981,33.53,83.981  l-2.833-25.297c0,0-2.456-0.308-3.712-0.467c-1.914-0.243-3.4-1-4.147-2.004c-0.376-0.503-0.571-1.068-0.568-1.664  c0-0.297,0.049-0.604,0.148-0.914c0.049-0.155,0.111-0.312,0.186-0.468c0.074-0.158,0.161-0.314,0.26-0.472  c4.011-6.417,7.346-12.547,10.236-17.994c0.574-1.071,1.521-2.01,2.567-2.701c0.524-0.343,1.079-0.624,1.639-0.817  c0.28-0.098,0.563-0.172,0.845-0.223c0.141-0.025,0.282-0.043,0.422-0.056c0.141-0.013,0.282-0.017,0.421-0.016l0,0  c6.676,0.081,15.198,0.774,23.283,1.818c-0.141,0.511-1.062,1.996-1.062,1.996l-14.978-1.368c-2.756-0.179-8.245-1.289-12.187,5.085  l-4.062,6.843c-0.831,2.545-0.525,4.531,0.351,6.052c0.666-1.812,3.48-7.234,4.649-9.401c1.167-2.165,6.586-4.489,9.998-4.604  c3.412-0.114,12.909,1.076,14.373,1.257c0.368,0.031,0.723,0.071,1.066,0.119c0.159,0.021,0.472,0.071,0.472,0.071l7.628-23.838  c0,0,2.411-8.937,4.582-8.79c2.171,0.149,3.675,0.188,4.375,1.883c0.628,1.524,0.006,2.894-1.251,5.232  c-1.255,2.338-3.748,7.324-3.748,7.324L64.67,39.909c0,0,0.532,0.223,0.722,0.33c2.937,1.651,3.701,4.038,3.76,5.235  c0.087,1.784-0.257,4.146-0.312,6.292c-0.011,0.425,0.644-0.498,0.729-1.06l1.042-8.79c0.106-2.124-1.173-4.085-3.333-5.441  C67.567,35.259,68.063,34.231,68.317,33.755z"/>
</svg>