<svg xmlns="http://www.w3.org/2000/svg" xmlns:xlink="http://www.w3.org/1999/xlink" version="1.1" id="Your_Icon" x="0px" y="0px" width="100px" height="100px" viewBox="0 0 100 100" enable-background="new 0 0 100 100" xml:space="preserve">
<g>
	<g>
		<g>
			<g>
			</g>
		</g>
		<g>
		</g>
	</g>
</g>
<path d="M77.778,77.38c-3.115-1.282-8.095,1.648-9.835,6.076c-1.425,3.629-12.596,2.005-14.293,1.573  c-1.679-0.429-3.726-2.698-3.726-2.698l8.796-0.006c0,0,6.505,0.368,6.505-4.853c0-5.223-5.862-4.766-5.862-4.766H35.907  c-5.68,0-15.665,9.669-15.665,9.669l2.473,10.762c0,0,9.437-1.283,12.277-1.283s9.69,2.702,13.009,3.115  c4.729,0.592,14.033-0.69,18.966-1.923c2.748-0.688,3.94-0.55,8.703-6.05C80.435,81.504,80.894,78.661,77.778,77.38"/>
<path d="M45.546,71.057l0.902-0.002c0,0,9.159-0.033,15.113-0.033c3.411,0,4.351,2.385,5.021,4.822  c0.243,0.884,0.402,1.47,0.943,1.799c0.461,0.279,1.091,0.437,1.771,0.437c1.336,0,2.64-0.573,3.576-1.567  c1.283-1.362,1.855-3.384,1.695-6.013c-0.252-4.215-2.82-5.999-4.188-6.655c0.168-2.821-0.057-6.612-3.046-8.93  c-2.226-1.725-4.851-1.983-6.217-1.983c-1.981,0-2.292,0.434-2.459,0.667l-0.334,0.471l0.177,0.534  c0.108,0.326,0.3,0.491,0.679,0.819c0.903,0.788,1.283,1.235,1.426,1.488c-0.242,0.093-0.795,0.222-1.963,0.222l-0.562-0.002  c-3.951,0-6.59,0.919-7.846,2.735c-0.663,0.961-0.793,1.966-0.757,2.733c-0.939,0.234-2.219,0.754-3.151,1.922  c-1.115,1.395-1.438,3.299-0.96,5.651L45.546,71.057z M48.036,65.907c0.965-1.226,2.727-1.298,2.739-1.298l1.321-0.03  c1.375,0.02,3.368,0.036,2.731-0.017c-0.947-0.075-2.58-0.471-2.947-1.176l-0.101-0.266c-0.006-0.013-0.379-1.07,0.266-2.004  c0.563-0.817,2.067-1.79,6.036-1.79l0.562,0.003c1.636,0,3.582-0.184,4.117-1.613c0.335-0.897-0.094-1.784-0.702-2.536  c1.076,0.111,2.626,0.46,3.93,1.472c2.312,1.792,2.346,5.121,2.169,7.472c-0.036,0.351-1.253,0.839-2.046,1.174  c-0.683,0.286,1.261,0.048,2.402,0.215l0.451,0.125c0.031,0.007,3.165,0.905,3.412,4.993c0.116,1.971-0.263,3.484-1.103,4.373  c-0.745,0.79-1.63,0.874-1.977,0.874c-0.182,0-0.327-0.019-0.432-0.046c-0.051-0.159-0.111-0.379-0.164-0.571  c-0.528-1.924-1.768-6.437-7.141-6.437c-4.8,0-11.684,0.02-14.174,0.026C47.261,67.597,47.479,66.609,48.036,65.907"/>
<path d="M57.369,48.263c1.358,0,2.382,1.764,2.382,1.764h1.543h0.779h1.542c0,0,1.022-1.764,2.383-1.764  c1.359,0,1.13-2.629,1.13-2.629H56.239C56.239,45.634,56.012,48.263,57.369,48.263"/>
<path d="M46.252,4.881c0,0,3.206,26.661,3.848,33.259c0.642,6.596,5.588,6.779,5.588,6.779h12.095c4.581,0,4.765-7.054,4.765-7.054  l4.49-32.984H46.252z M55.271,41.382c-0.604,0.062-1.161-0.551-1.245-1.365l-3.056-30.009c-0.083-0.816,0.339-1.527,0.943-1.588  c0.604-0.062,1.161,0.55,1.244,1.364l3.055,30.009C56.297,40.609,55.874,41.32,55.271,41.382z"/>
</svg>