<svg xmlns="http://www.w3.org/2000/svg" xmlns:xlink="http://www.w3.org/1999/xlink" version="1.1" id="Layer_1" x="0px" y="0px" width="100px" height="100px" viewBox="0 0 100 100" enable-background="new 0 0 100 100" xml:space="preserve">
<g>
	<path d="M87.881,99.41l3.524-4.874c0.361-0.853,0.187-1.809,0.15-2.711c-0.075-1.456-0.062-2.908,0.022-4.365   c0.316-5.482,0.727-10.96,1.068-16.442c0.196-3.117,0.424-6.188,0.95-9.273c0.513-3.06,0.852-6.08,0.789-9.191   c-0.063-3.391,0.243-6.617,0.684-9.984c0.447-3.41,0.333-6.827,0.694-10.243c0.194-1.876,0.566-3.739,0.703-5.62   c0.105-1.439,0-2.879,0.085-4.312c0.055-1.081,0.413-2.228,0.317-3.302l-0.183-2.532l-3.483,0.854L87.881,99.41"/>
	<g>
		<path d="M54.862,0.763c-2.12-0.507-4.27-0.907-6.456-0.758c-2.679,0.178-5.303,0.979-7.854,1.763    c-3.727,1.146-7.417,2.441-11.045,3.88c-3.088,1.218-5.886,3.231-8.656,5.094c-3.882,2.623-6.373,6.295-8.998,10.045l-0.018,0.266    c1.99-2.742,4.548-5.044,7.796-6.68c7.641-3.833,16.803-4.144,25.178-3.947c15.784,0.371,31.46,3.166,47.024,5.621l3.485-0.855    C82.668,10.694,67.968,3.911,54.862,0.763z"/>
		<g>
			<path d="M44.811,11.794c-8.375-0.198-17.537,0.114-25.178,3.948c-3.248,1.634-5.806,3.935-7.796,6.679     c-2.037,2.809-3.48,6.081-4.441,9.596C5.187,40.107,4.75,48.689,4.129,57.021c-0.561,7.482-1.514,15.253-0.698,22.748     c0.627,5.792,3.207,10.367,8.605,12.887c7.322,3.403,16.125,3.763,24.046,4.235c15.668,0.943,31.404,0.625,47.032,2.167     c1.135,0.113,2.271,0.231,3.398,0.353l5.321-81.996C76.271,14.959,60.595,12.165,44.811,11.794z M21.147,71.442     c-2.093,0-3.792-1.697-3.792-3.792c0-2.09,1.699-3.786,3.792-3.786c2.087,0,3.79,1.696,3.79,3.786     C24.937,69.745,23.234,71.442,21.147,71.442z M59.307,86.074c-3.602,0-6.522-2.919-6.522-6.527c0-3.602,2.921-6.521,6.522-6.521     c3.601,0,6.521,2.919,6.521,6.521C65.828,83.155,62.907,86.074,59.307,86.074z M71.291,36.017c-1.654,0-2.994-1.346-2.994-2.998     c0-1.654,1.34-2.998,2.994-2.998c1.657,0,2.998,1.344,2.998,2.998C74.289,34.671,72.948,36.017,71.291,36.017z M77.812,33.019     c-0.584,0-1.056-0.479-1.056-1.058c0-0.586,0.472-1.064,1.056-1.064c0.588,0,1.058,0.478,1.058,1.064     C78.869,32.541,78.399,33.019,77.812,33.019z"/>
		</g>
	</g>
</g>
</svg>