<svg xmlns="http://www.w3.org/2000/svg" xmlns:xlink="http://www.w3.org/1999/xlink" version="1.1" id="&#1057;&#1083;&#1086;&#1081;_1" x="0px" y="0px" width="100px" height="100px" viewBox="0 0 100 100" enable-background="new 0 0 100 100" xml:space="preserve">
<g>
	<path d="M69.155,42.285l-7.656-21.576c-0.874-2.463-1.392-4.116-1.521-4.605C59.78,14.359,58.296,13,56.5,13h-13   c-1.78,0-3.253,1.335-3.472,3.057c-0.146,0.498-0.702,2.123-1.63,4.523l-8.391,21.674C28.881,45.164,28,49.883,28,53v36   c0,4.411,3.589,8,8,8h27c4.411,0,8-3.589,8-8V53C71,49.905,70.189,45.198,69.155,42.285z M35.603,44.42l8.391-21.674   c0.65-1.681,1.09-2.878,1.387-3.746h9.201c0.273,0.865,0.674,2.055,1.264,3.715l7.656,21.576C64.3,46.541,65,50.61,65,53v4.77   c-0.16,0.144-0.311,0.304-0.441,0.486C63.494,59.746,59.638,64,56,64c-2.386,0-4.604-1.495-6.748-2.94   C47.021,59.556,44.715,58,42,58c-2.475,0-5.495,1.273-8,2.617V53C34,50.636,34.749,46.626,35.603,44.42z"/>
	<path d="M43,11h14c1.657,0,3-1.343,3-3s-1.343-3-3-3H43c-1.657,0-3,1.343-3,3S41.343,11,43,11z"/>
</g>
</svg>