<svg xmlns="http://www.w3.org/2000/svg" xmlns:xlink="http://www.w3.org/1999/xlink" version="1.1" id="Your_Icon" x="0px" y="0px" width="100px" height="100px" viewBox="0 0 100 100" enable-background="new 0 0 100 100" xml:space="preserve">
<g>
	<g>
		<path fill="#000000" d="M36.547,4.314c5.827-0.479,11.69-0.374,17.517,0.068c10.715,0.85,21.355,3.027,31.43,6.808    c3.709,1.4,7.342,3.006,10.846,4.863l-0.039,0.075c-4.949,1.541-9.906,3.064-14.859,4.599c-4.316,1.325-8.623,2.684-12.947,3.988    c-0.988-1.414-2.654-2.157-4.291-2.523c-2.375-0.5-4.941-0.311-7.143,0.755c-1.145,0.592-2.295,1.526-2.527,2.866    c-0.207,1.079,0.322,2.156,1.125,2.857c-1.189,0.432-2.422,0.754-3.627,1.148c-16.056,4.958-32.11,9.924-48.169,14.873    c-0.617,0.179-1.222,0.396-1.844,0.555c0.033-0.052,0.098-0.156,0.132-0.209c6.938-8.265,13.88-16.526,20.818-24.79    c0.198-0.229,0.369-0.484,0.609-0.674c1.137,0.479,2.417,0.689,3.637,0.46c0.454-0.51,0.627-1.228,0.743-1.89    c0.135-1.122-0.023-2.278-0.44-3.327c2.84-3.345,5.649-6.716,8.472-10.075C36.151,4.575,36.278,4.298,36.547,4.314z M49.867,8.674    c-1.751,0.259-3.54,0.866-4.82,2.139c-0.646,0.655-1.125,1.537-1.078,2.479c-0.009,1.217,0.811,2.257,1.75,2.946    c1.674,1.209,3.781,1.65,5.815,1.682c2.014-0.021,4.096-0.45,5.771-1.617c0.936-0.644,1.725-1.626,1.842-2.788    c0.098-0.933-0.303-1.872-0.936-2.546c-1.102-1.192-2.666-1.849-4.232-2.167C52.629,8.52,51.232,8.493,49.867,8.674z     M72.785,12.336c-0.797,0.15-1.588,0.441-2.215,0.968c-0.436,0.368-0.779,0.89-0.791,1.476c-0.029,0.708,0.436,1.338,0.992,1.729    c0.934,0.654,2.094,0.921,3.223,0.905c1.102,0.016,2.234-0.238,3.156-0.86c0.547-0.382,1.045-0.965,1.045-1.666    c0.051-0.739-0.457-1.389-1.043-1.783C75.887,12.245,74.264,12.113,72.785,12.336z M23.619,28.489    c-0.787,0.172-1.614,0.534-2.032,1.263c-0.312,0.555-0.116,1.268,0.335,1.685c0.66,0.617,1.578,0.862,2.459,0.917    c0.932,0.037,1.912-0.128,2.692-0.668c0.429-0.301,0.816-0.768,0.789-1.321c0.01-0.612-0.455-1.095-0.94-1.401    C25.938,28.374,24.728,28.295,23.619,28.489z"/>
	</g>
	<g>
		<path fill="#000000" d="M95.539,16.957c0.285-0.086,0.564-0.205,0.867-0.222c0.166,16.644,0.404,33.287,0.594,49.93    c-17.379,5.513-34.766,10.992-52.147,16.494c-13.471,4.25-26.934,8.528-40.409,12.764c-0.138-2.293-0.227-4.59-0.35-6.884    c-0.003-0.263-0.055-0.527-0.001-0.786c1.563-0.296,2.895-1.413,3.625-2.805c0.728-1.338,0.896-2.943,0.581-4.424    c-0.401-1.842-1.708-3.516-3.501-4.172c-0.425-0.178-0.893-0.2-1.329-0.338c-0.167-4.21-0.437-8.419-0.589-12.63    c1.2-0.561,1.914-1.797,2.29-3.018c0.543-1.859,0.466-3.929-0.34-5.702c-0.481-1.057-1.324-2.035-2.493-2.32    C2.188,50.775,2.13,48.7,2.01,46.63C1.994,46.445,2,46.26,2.009,46.077c16.146-5.039,32.296-10.054,48.444-15.086    c1.86-0.567,3.708-1.177,5.575-1.718c0.221,1.286,0.592,2.565,1.297,3.674c0.797,1.281,1.977,2.369,3.418,2.871    c1.533,0.532,3.299,0.349,4.682-0.508c1.666-0.994,2.789-2.726,3.316-4.567c0.529-1.763,0.457-3.654,0.043-5.433    c1.326-0.476,2.691-0.844,4.033-1.28C80.389,21.671,87.965,19.315,95.539,16.957z M83.66,32.935    c-1.219,0.316-2.012,1.59-1.99,2.812c-0.055,1.095,0.502,2.238,1.486,2.763c0.842,0.459,1.963,0.328,2.668-0.327    c1.352-1.153,1.369-3.507,0.045-4.686C85.301,32.936,84.426,32.728,83.66,32.935z M44.581,40.593    c-1.331,0.121-2.54,0.883-3.366,1.911c-1.919,2.408-1.892,6.157,0.09,8.52c0.994,1.209,2.574,1.98,4.155,1.811    c1.31-0.094,2.523-0.814,3.354-1.811c2.078-2.487,2.008-6.521-0.234-8.882C47.573,41.049,46.068,40.428,44.581,40.593z     M67.967,45.653c-1.543,0.798-2.766,2.144-3.521,3.696c-0.91,1.833-1.158,3.963-0.809,5.972c0.395,2.227,1.617,4.334,3.48,5.645    c1.471,1.05,3.354,1.532,5.145,1.24c1.42-0.188,2.723-0.89,3.801-1.812l0.078,0.012c0.715,1.258,2.193,2.079,3.646,1.85    c1.1-0.145,2.074-0.857,2.635-1.802c0.934-1.541,0.723-3.681-0.529-4.984c-0.75-0.814-1.877-1.218-2.973-1.131    c0.193-2.164-0.377-4.406-1.631-6.188c-1.055-1.512-2.637-2.683-4.441-3.109C71.219,44.639,69.449,44.869,67.967,45.653z     M24.773,56.343c-2.065,0.271-3.858,1.712-4.766,3.558c-0.917,1.834-1.018,4.046-0.305,5.965c0.581,1.58,1.752,2.954,3.268,3.704    c1.537,0.768,3.413,0.812,4.986,0.121c1.662-0.718,2.946-2.188,3.551-3.884c0.433-1.137,0.507-2.378,0.383-3.58    c-0.24-1.866-1.224-3.654-2.754-4.77C27.901,56.539,26.3,56.12,24.773,56.343z M50.891,61.257    c-1.69,0.421-2.946,2.006-3.146,3.711c-0.318,1.948,0.719,4.103,2.566,4.891c1.165,0.506,2.581,0.411,3.653-0.277    c1.047-0.641,1.762-1.753,1.998-2.948c0.371-1.726-0.285-3.661-1.721-4.717C53.299,61.211,52.033,60.946,50.891,61.257z     M35.18,77.365c-0.835,0.244-1.368,1.089-1.433,1.929c-0.16,1.198,0.792,2.575,2.089,2.45c1.393-0.115,2.14-1.777,1.691-3.003    C37.264,77.769,36.179,77.024,35.18,77.365z"/>
	</g>
</g>
</svg>